<?xml version="1.0" encoding="utf-8"?>
<!-- Generator: Adobe Illustrator 22.0.1, SVG Export Plug-In . SVG Version: 6.00 Build 0)  -->
<svg version="1.1" id="Capa_1" xmlns="http://www.w3.org/2000/svg" xmlns:xlink="http://www.w3.org/1999/xlink" x="0px" y="0px"
	 viewBox="0 0 512 160.8" style="enable-background:new 0 0 512 160.8;" xml:space="preserve">
<style type="text/css">
	.st0{fill:#FFFFFF;}
	.st1{enable-background:new    ;}
</style>
<g id="XMLID_1_">
	<g id="Layer_2_1_">
		<g id="logos_1_">
			<rect id="XMLID_109_" x="138.2" y="6.7" class="st0" width="10.7" height="10.7"/>
			<rect id="XMLID_108_" x="115.5" y="6.7" class="st0" width="10.7" height="10.7"/>
			<rect id="XMLID_107_" x="92.8" y="6.7" class="st0" width="10.7" height="10.7"/>
			<rect id="XMLID_106_" x="70.1" y="6.7" class="st0" width="10.7" height="10.7"/>
			<rect id="XMLID_105_" x="47.4" y="6.7" class="st0" width="10.7" height="10.7"/>
			<rect id="XMLID_104_" x="24.7" y="6.7" class="st0" width="10.7" height="10.7"/>
			<rect id="XMLID_103_" x="2" y="6.7" class="st0" width="10.7" height="10.7"/>
			<rect id="XMLID_102_" x="73.4" y="78" class="st0" width="4.2" height="4.2"/>
			<rect id="XMLID_101_" x="72.4" y="54.4" class="st0" width="6.2" height="6.2"/>
			<rect id="XMLID_100_" x="49.7" y="54.4" class="st0" width="6.2" height="6.2"/>
			<rect id="XMLID_99_" x="95.1" y="77.1" class="st0" width="6.2" height="6.2"/>
			<rect id="XMLID_98_" x="116.8" y="75.8" class="st0" width="8.4" height="8.4"/>
			<rect id="XMLID_97_" x="116.8" y="98.5" class="st0" width="8.4" height="8.4"/>
			<rect id="XMLID_96_" x="116.8" y="121.2" class="st0" width="8.4" height="8.4"/>
			<rect id="XMLID_95_" x="116.8" y="53.1" class="st0" width="8.4" height="8.4"/>
			<rect id="XMLID_94_" x="116.8" y="30.4" class="st0" width="8.4" height="8.4"/>
			<rect id="XMLID_93_" x="94.1" y="30.4" class="st0" width="8.4" height="8.4"/>
			<rect id="XMLID_92_" x="71.4" y="30.4" class="st0" width="8.4" height="8.4"/>
			<rect id="XMLID_91_" x="48.4" y="30.4" class="st0" width="8.4" height="8.4"/>
			<rect id="XMLID_90_" x="94.1" y="121.2" class="st0" width="8.4" height="8.4"/>
			<rect id="XMLID_89_" x="71.4" y="121.2" class="st0" width="8.4" height="8.4"/>
			<rect id="XMLID_88_" x="48.4" y="121.2" class="st0" width="8.4" height="8.4"/>
			<rect id="XMLID_87_" x="25.7" y="75.8" class="st0" width="8.4" height="8.4"/>
			<rect id="XMLID_86_" x="25.7" y="98.5" class="st0" width="8.4" height="8.4"/>
			<rect id="XMLID_85_" x="25.7" y="121.2" class="st0" width="8.4" height="8.4"/>
			<rect id="XMLID_84_" x="25.7" y="53.1" class="st0" width="8.4" height="8.4"/>
			<rect id="XMLID_83_" x="25.7" y="30.4" class="st0" width="8.4" height="8.4"/>
			<rect id="XMLID_82_" x="138.2" y="74.8" class="st0" width="10.7" height="10.7"/>
			<rect id="XMLID_81_" x="138.2" y="97.5" class="st0" width="10.7" height="10.7"/>
			<rect id="XMLID_80_" x="138.2" y="120.2" class="st0" width="10.7" height="10.7"/>
			<rect id="XMLID_79_" x="138.2" y="142.9" class="st0" width="10.7" height="10.7"/>
			<rect id="XMLID_78_" x="138.2" y="52.1" class="st0" width="10.7" height="10.7"/>
			<rect id="XMLID_77_" x="138.2" y="29.4" class="st0" width="10.7" height="10.7"/>
			<rect id="XMLID_76_" x="2" y="74.8" class="st0" width="10.7" height="10.7"/>
			<rect id="XMLID_75_" x="2" y="52.1" class="st0" width="10.7" height="10.7"/>
			<rect id="XMLID_74_" x="2" y="29.4" class="st0" width="10.7" height="10.7"/>
			<rect id="XMLID_73_" x="2" y="97.5" class="st0" width="10.7" height="10.7"/>
			<rect id="XMLID_72_" x="2" y="120.2" class="st0" width="10.7" height="10.7"/>
			<rect id="XMLID_71_" x="2" y="142.9" class="st0" width="10.7" height="10.7"/>
			<rect id="XMLID_70_" x="24.7" y="142.9" class="st0" width="10.7" height="10.7"/>
			<rect id="XMLID_69_" x="47.4" y="142.9" class="st0" width="10.7" height="10.7"/>
			<rect id="XMLID_68_" x="70.1" y="142.9" class="st0" width="10.7" height="10.7"/>
			<rect id="XMLID_67_" x="92.8" y="142.9" class="st0" width="10.7" height="10.7"/>
			<rect id="XMLID_66_" x="115.5" y="142.9" class="st0" width="10.7" height="10.7"/>
			<rect id="XMLID_65_" x="49.7" y="77.1" class="st0" width="6.2" height="6.2"/>
			<rect id="XMLID_64_" x="95.1" y="54.4" class="st0" width="6.2" height="6.2"/>
			<rect id="XMLID_63_" x="72.4" y="99.8" class="st0" width="6.2" height="6.2"/>
			<rect id="XMLID_62_" x="49.7" y="99.8" class="st0" width="6.2" height="6.2"/>
			<rect id="XMLID_61_" x="95.1" y="99.8" class="st0" width="6.2" height="6.2"/>
		</g>
	</g>
	<g id="XMLID_36_" class="st1">
		<path id="XMLID_57_" class="st0" d="M190.1,9.8c1,1.5,1.6,3.2,1.6,5.2c0,2.1-0.5,3.8-1.6,5c-0.6,0.7-1.5,1.4-2.6,2
			c1.7,0.6,3.1,1.6,4,3c0.9,1.4,1.3,3.1,1.3,5c0,2-0.5,3.9-1.5,5.5c-0.6,1.1-1.5,2-2.4,2.7c-1.1,0.8-2.4,1.4-3.9,1.7
			c-1.5,0.3-3.1,0.5-4.8,0.5h-15.4V6.2h16.6C185.4,6.3,188.4,7.5,190.1,9.8z M171.5,12.1v7.6h8.3c1.5,0,2.7-0.3,3.6-0.8
			c0.9-0.6,1.4-1.6,1.4-3c0-1.6-0.6-2.6-1.8-3.2c-1.1-0.4-2.4-0.5-4-0.5H171.5z M171.5,25.4v9.1h8.3c1.5,0,2.6-0.2,3.5-0.6
			c1.5-0.7,2.3-2.2,2.3-4.3c0-1.8-0.7-3-2.2-3.7c-0.8-0.4-2-0.6-3.4-0.6H171.5z"/>
		<path id="XMLID_55_" class="st0" d="M202.5,6.2h7.2v28.1h17.1v6.2h-24.3V6.2z"/>
		<path id="XMLID_52_" class="st0" d="M261.6,37.4c-2.6,2.7-6.3,4-11.2,4c-4.9,0-8.6-1.3-11.2-4c-3.5-3.3-5.2-8-5.2-14.1
			c0-6.3,1.7-11,5.2-14.1c2.6-2.7,6.3-4,11.2-4c4.9,0,8.6,1.3,11.2,4c3.5,3.1,5.2,7.9,5.2,14.1C266.7,29.4,265,34.1,261.6,37.4z
			 M257.1,32.2c1.7-2.1,2.5-5.1,2.5-8.9c0-3.8-0.8-6.8-2.5-8.9c-1.7-2.1-3.9-3.1-6.8-3.1c-2.8,0-5.1,1-6.8,3.1
			c-1.7,2.1-2.5,5.1-2.5,8.9c0,3.9,0.8,6.8,2.5,8.9c1.7,2.1,4,3.1,6.8,3.1C253.2,35.3,255.4,34.3,257.1,32.2z"/>
		<path id="XMLID_50_" class="st0" d="M279.1,9.8c2.8-2.8,6.3-4.2,10.5-4.2c5.7,0,9.9,1.9,12.5,5.7c1.5,2.1,2.2,4.3,2.3,6.4h-7.2
			c-0.5-1.6-1-2.9-1.8-3.7c-1.3-1.5-3.2-2.2-5.7-2.2c-2.6,0-4.6,1.1-6,3.2c-1.5,2.1-2.2,5.1-2.2,8.9c0,3.8,0.8,6.7,2.3,8.6
			c1.6,1.9,3.5,2.9,5.9,2.9c2.5,0,4.3-0.8,5.6-2.5c0.7-0.9,1.3-2.2,1.8-4h7.1c-0.6,3.7-2.2,6.8-4.7,9.1c-2.5,2.3-5.8,3.5-9.7,3.5
			c-4.9,0-8.7-1.6-11.5-4.7c-2.8-3.2-4.2-7.5-4.2-13.1C274.3,17.6,275.9,13,279.1,9.8z"/>
		<path id="XMLID_48_" class="st0" d="M313.8,6.2h7v14.1l13.2-14.1h9.3l-14.1,14.1l14.8,20.2h-9.2l-10.6-15l-3.4,3.5v11.5h-7V6.2z"
			/>
		<path id="XMLID_46_" class="st0" d="M355,9.8c2.8-2.8,6.3-4.2,10.5-4.2c5.7,0,9.9,1.9,12.5,5.7c1.5,2.1,2.2,4.3,2.3,6.4h-7.2
			c-0.5-1.6-1-2.9-1.8-3.7c-1.3-1.5-3.2-2.2-5.7-2.2c-2.6,0-4.6,1.1-6,3.2c-1.5,2.1-2.2,5.1-2.2,8.9c0,3.8,0.8,6.7,2.3,8.6
			c1.6,1.9,3.5,2.9,5.9,2.9c2.5,0,4.3-0.8,5.6-2.5c0.7-0.9,1.3-2.2,1.8-4h7.1c-0.6,3.7-2.2,6.8-4.7,9.1c-2.5,2.3-5.8,3.5-9.7,3.5
			c-4.9,0-8.7-1.6-11.5-4.7c-2.8-3.2-4.2-7.5-4.2-13.1C350.2,17.6,351.8,13,355,9.8z"/>
		<path id="XMLID_44_" class="st0" d="M389.6,40.5V6.2h7.1v13.1H410V6.2h7.1v34.3H410V25.2h-13.3v15.3H389.6z"/>
		<path id="XMLID_41_" class="st0" d="M437.4,6.2h8.1l12.1,34.3h-7.8l-2.3-7H435l-2.3,7h-7.5L437.4,6.2z M436.9,27.5h8.8L441.4,14
			L436.9,27.5z"/>
		<path id="XMLID_39_" class="st0" d="M472.1,40.5H465V6.2h7.1V40.5z"/>
		<path id="XMLID_37_" class="st0" d="M482.2,6.2h7.5l13.6,23.9V6.2h6.7v34.3h-7.2l-13.9-24.3v24.3h-6.7V6.2z"/>
	</g>
	<g id="XMLID_18_" class="st1">
		<path id="XMLID_33_" class="st0" d="M174.4,63.3h8.1l12.1,34.3h-7.8l-2.3-7H172l-2.3,7h-7.5L174.4,63.3z M173.9,84.6h8.8
			l-4.3-13.5L173.9,84.6z"/>
		<path id="XMLID_31_" class="st0" d="M205.8,66.9c2.8-2.8,6.3-4.2,10.5-4.2c5.7,0,9.9,1.9,12.5,5.7c1.5,2.1,2.2,4.3,2.3,6.4H224
			c-0.5-1.6-1-2.9-1.8-3.7c-1.3-1.5-3.2-2.2-5.7-2.2c-2.5,0-4.6,1.1-6,3.2c-1.5,2.1-2.2,5.1-2.2,8.9c0,3.8,0.8,6.7,2.3,8.6
			c1.6,1.9,3.5,2.9,5.9,2.9c2.5,0,4.3-0.8,5.6-2.5c0.7-0.9,1.3-2.2,1.8-4h7.1c-0.6,3.7-2.2,6.8-4.7,9.1c-2.5,2.3-5.8,3.5-9.7,3.5
			c-4.9,0-8.7-1.6-11.5-4.7c-2.8-3.2-4.2-7.5-4.2-13.1C201,74.8,202.6,70.1,205.8,66.9z"/>
		<path id="XMLID_28_" class="st0" d="M250.3,63.3h8.1l12.1,34.3h-7.8l-2.3-7h-12.6l-2.3,7H238L250.3,63.3z M249.8,84.6h8.8
			l-4.3-13.5L249.8,84.6z"/>
		<path id="XMLID_25_" class="st0" d="M298.5,64.1c2.4,0.8,4.3,2.2,5.8,4.3c1.2,1.7,2,3.5,2.4,5.5c0.4,2,0.7,3.9,0.7,5.7
			c0,4.6-0.9,8.4-2.7,11.6c-2.5,4.3-6.3,6.4-11.5,6.4h-14.8V63.3h14.8C295.3,63.4,297.1,63.6,298.5,64.1z M285.4,69.3v22.4h6.6
			c3.4,0,5.7-1.7,7.1-5c0.7-1.8,1.1-4,1.1-6.5c0-3.5-0.5-6.2-1.6-8c-1.1-1.9-3.3-2.8-6.5-2.8H285.4z"/>
		<path id="XMLID_23_" class="st0" d="M341.7,69.4h-18.1v7.3h16.6v6h-16.6v8.8h19v6.2h-26V63.3h25.1V69.4z"/>
		<path id="XMLID_21_" class="st0" d="M374.4,63.3h10.3v34.3h-6.7V74.4c0-0.7,0-1.6,0-2.8c0-1.2,0-2.1,0-2.8l-6.5,28.8h-7l-6.4-28.8
			c0,0.7,0,1.6,0,2.8c0,1.2,0,2.1,0,2.8v23.2h-6.7V63.3H362l6.2,26.9L374.4,63.3z"/>
		<path id="XMLID_19_" class="st0" d="M414.5,63.3h8.1l-11.5,21.4v12.8H404V84.7l-11.9-21.4h8.4l7.1,14.9L414.5,63.3z"/>
	</g>
	<g id="XMLID_3_" class="st1">
		<path id="XMLID_16_" class="st0" d="M187.3,120.5h10.3v34.3h-6.7v-23.2c0-0.7,0-1.6,0-2.8c0-1.2,0-2.1,0-2.8l-6.5,28.8h-7
			l-6.4-28.8c0,0.7,0,1.6,0,2.8c0,1.2,0,2.1,0,2.8v23.2h-6.7v-34.3h10.4l6.2,26.9L187.3,120.5z"/>
		<path id="XMLID_13_" class="st0" d="M233.1,126.5H215v7.3h16.6v6H215v8.8h19v6.2h-26v-34.3h25.1V126.5z M228.7,110.8l-7.1,7h-4.8
			l4.5-7H228.7z"/>
		<path id="XMLID_11_" class="st0" d="M248.6,154.7h-8.3l11-17.5l-10.5-16.8h8.6l6.1,11.2l6.3-11.2h8.3L259.6,137l11.1,17.7H262
			l-6.5-11.7L248.6,154.7z"/>
		<path id="XMLID_9_" class="st0" d="M285,154.7h-7.1v-34.3h7.1V154.7z"/>
		<path id="XMLID_7_" class="st0" d="M298.5,124c2.8-2.8,6.3-4.2,10.5-4.2c5.7,0,9.9,1.9,12.5,5.7c1.5,2.1,2.2,4.3,2.3,6.4h-7.2
			c-0.5-1.6-1-2.9-1.8-3.7c-1.3-1.5-3.2-2.2-5.7-2.2c-2.6,0-4.6,1.1-6,3.2c-1.5,2.1-2.2,5.1-2.2,8.9c0,3.8,0.8,6.7,2.3,8.6
			c1.6,1.9,3.5,2.9,5.9,2.9c2.5,0,4.3-0.8,5.6-2.5c0.7-0.9,1.3-2.2,1.8-4h7.1c-0.6,3.7-2.2,6.8-4.7,9.1c-2.5,2.3-5.8,3.5-9.7,3.5
			c-4.9,0-8.7-1.6-11.5-4.7c-2.8-3.2-4.2-7.5-4.2-13.1C293.8,131.9,295.3,127.3,298.5,124z"/>
		<path id="XMLID_4_" class="st0" d="M359.6,151.7c-2.6,2.7-6.3,4-11.2,4c-4.9,0-8.6-1.3-11.2-4c-3.5-3.3-5.2-8-5.2-14.1
			c0-6.3,1.7-11,5.2-14.1c2.6-2.7,6.3-4,11.2-4c4.9,0,8.6,1.3,11.2,4c3.5,3.1,5.2,7.9,5.2,14.1C364.8,143.7,363,148.4,359.6,151.7z
			 M355.1,146.5c1.7-2.1,2.5-5.1,2.5-8.9c0-3.8-0.8-6.8-2.5-8.9c-1.7-2.1-3.9-3.1-6.8-3.1c-2.8,0-5.1,1-6.8,3.1
			c-1.7,2.1-2.5,5.1-2.5,8.9c0,3.9,0.8,6.8,2.5,8.9c1.7,2.1,4,3.1,6.8,3.1C351.2,149.6,353.4,148.6,355.1,146.5z"/>
	</g>
</g>
</svg>
